<svg width="112" height="54" viewBox="0 0 112 54" fill="none" xmlns="http://www.w3.org/2000/svg">
<path d="M56.4403 53.5C41.593 52.9247 24.1435 44.8135 12.6886 36.6029C6.94906 32.489 2.79516 28.4064 1.20238 25.2997C0.402878 23.7403 0.317078 22.5669 0.78923 21.76C1.26713 20.9432 2.43932 20.2857 4.69515 20.0716C14.4707 19.1437 19.5069 15.1554 24.6694 11.0672C25.3697 10.5126 26.0724 9.95611 26.7896 9.40519C29.7876 7.10213 33.0483 4.88331 37.48 3.23522C41.9127 1.58672 47.5426 0.5 55.2799 0.5C70.7147 0.5 78.9325 5.33961 85.6027 10.1913C86.4722 10.8237 87.3182 11.4592 88.1529 12.0862C93.7207 16.2686 98.7863 20.0738 106.967 20.0738C109.222 20.0738 110.475 20.606 111.054 21.3579C111.618 22.0917 111.674 23.2191 111.065 24.7701C109.848 27.87 106.172 32.105 100.805 36.3964C90.0971 44.958 72.9719 53.4967 56.4403 53.5Z" fill="#AF6378" stroke="black"/>
<path d="M40.732 23.12C40.732 22.736 40.7427 22.4587 40.764 22.288C40.8067 22.096 40.86 21.968 40.924 21.904C40.988 21.84 41.0947 21.808 41.244 21.808C41.5213 21.808 41.7347 22 41.884 22.384C42.0333 22.7467 42.044 23.088 41.916 23.408C41.8733 23.536 41.8627 23.888 41.884 24.464C41.9053 25.04 41.9373 25.6587 41.98 26.32C42.044 26.96 42.108 27.5573 42.172 28.112C42.236 28.6667 42.3 28.976 42.364 29.04C42.4707 29.1467 43.1107 29.0507 44.284 28.752C45.5 28.4533 46.1933 28.4 46.364 28.592C46.5133 28.7413 46.556 28.912 46.492 29.104C46.4493 29.2747 46.3 29.4347 46.044 29.584C45.8093 29.7333 45.5107 29.8507 45.148 29.936C44.38 30.064 43.7293 30.2133 43.196 30.384L42.268 30.64V33.328C42.268 34.4373 42.236 35.1947 42.172 35.6C42.1293 36.0053 42.0333 36.272 41.884 36.4C41.5 36.6987 41.244 36.6027 41.116 36.112C40.988 35.5147 40.892 33.8293 40.828 31.056C40.764 27.3013 40.732 25.3493 40.732 25.2C40.7107 24.688 40.7107 23.9947 40.732 23.12ZM29.98 25.808C30.5347 25.7013 31.516 25.6267 32.924 25.584C33.8413 25.584 34.4067 25.6053 34.62 25.648C34.8547 25.6907 34.972 25.8187 34.972 26.032C34.972 26.3733 34.812 26.5867 34.492 26.672C34.1933 26.736 33.5747 26.7253 32.636 26.64C31.548 26.5547 30.8227 26.608 30.46 26.8C30.2253 26.928 30.0867 27.0987 30.044 27.312C30.0013 27.504 30.0227 28.0053 30.108 28.816C30.1507 29.328 30.172 29.6907 30.172 29.904C30.1933 30.096 30.2573 30.32 30.364 30.576C30.492 30.832 30.5773 30.992 30.62 31.056C30.684 31.0987 30.8653 31.1627 31.164 31.248C31.4627 31.3333 31.7187 31.376 31.932 31.376C32.1667 31.376 32.5827 31.3867 33.18 31.408C34.6093 31.4507 35.388 31.536 35.516 31.664C35.58 31.728 35.612 31.8773 35.612 32.112V32.72L32.54 32.688C30.4707 32.6667 29.3933 32.6133 29.308 32.528C29.2227 32.4853 29.1373 31.92 29.052 30.832C28.988 29.7867 28.86 28.8373 28.668 27.984C28.4973 27.28 28.4973 26.7893 28.668 26.512C28.8387 26.2133 29.276 25.9787 29.98 25.808ZM62.3738 21.04C62.6724 21.04 62.8538 21.1467 62.9178 21.36C63.0031 21.5947 63.0884 22.5333 63.1738 24.176C63.3018 26.3307 63.4191 27.6533 63.5258 28.144C63.6324 28.6133 63.8884 28.848 64.2938 28.848C64.7204 28.848 65.4031 28.72 66.3418 28.464C67.0458 28.272 67.5151 28.2187 67.7498 28.304C68.0058 28.3893 68.1018 28.624 68.0378 29.008C67.9951 29.3067 67.2591 29.6053 65.8298 29.904C64.4431 30.2027 63.6964 30.4053 63.5898 30.512C63.5044 30.5973 63.4618 31.4827 63.4618 33.168C63.4618 34.5333 63.4084 35.4187 63.3018 35.824C63.1951 36.2293 62.9711 36.4 62.6298 36.336C62.4378 36.2933 62.3204 35.984 62.2778 35.408C62.2351 34.8107 62.2031 33.3707 62.1818 31.088C62.1818 27.824 62.1071 25.296 61.9578 23.504L61.7658 21.04H62.3738ZM54.0538 24.656C54.2031 24.3573 54.3631 24.1013 54.5338 23.888C54.7258 23.6747 54.8751 23.568 54.9818 23.568C55.4298 23.568 55.4298 24.1333 54.9818 25.264L54.4058 26.48L53.5098 28.048L54.7578 29.264C55.6964 30.096 56.3791 30.6613 56.8058 30.96C57.2111 31.2373 57.4458 31.5253 57.5098 31.824C57.5951 32.1227 57.4778 32.336 57.1578 32.464C56.9018 32.5493 56.5924 32.4853 56.2298 32.272C55.8671 32.0373 55.2484 31.536 54.3738 30.768C53.4778 30 52.9764 29.616 52.8698 29.616C52.7418 29.616 52.3258 30.1813 51.6218 31.312C51.3444 31.76 51.0671 32.1547 50.7898 32.496C50.5338 32.816 50.3524 32.976 50.2458 32.976C49.8404 32.976 49.7978 32.5493 50.1178 31.696C50.2671 31.2693 50.4911 30.8427 50.7898 30.416C51.3018 29.6693 51.8778 28.6773 52.5178 27.44C53.2858 26.0107 53.7978 25.0827 54.0538 24.656ZM76.267 21.072C76.395 21.0507 76.5657 21.0293 76.779 21.008C77.2483 20.944 77.579 20.9013 77.771 20.88C77.963 20.8587 78.1763 20.8693 78.411 20.912C78.6457 20.9333 78.7843 20.9653 78.827 21.008C78.8697 21.0507 78.923 21.1787 78.987 21.392C79.051 21.584 79.0723 21.776 79.051 21.968C79.051 22.16 79.0403 22.48 79.019 22.928C78.9977 23.1413 78.987 23.312 78.987 23.44C78.923 25.1467 78.827 26.1707 78.699 26.512C78.5283 26.9813 78.187 27.312 77.675 27.504C77.163 27.696 76.299 27.8133 75.083 27.856L72.811 27.952V24.848V21.68L73.611 21.488C74.0377 21.3813 74.923 21.2427 76.267 21.072ZM77.547 22.448C77.3123 22.2133 77.131 22.096 77.003 22.096C76.7897 22.16 76.363 22.224 75.723 22.288C74.9123 22.416 74.4217 22.5333 74.251 22.64C74.0377 22.7893 73.931 23.3867 73.931 24.432C73.931 25.4773 74.0377 26.0853 74.251 26.256C74.443 26.4267 74.9763 26.5013 75.851 26.48C76.1283 26.4587 76.3417 26.448 76.491 26.448C76.6617 26.4267 76.8003 26.3947 76.907 26.352C77.035 26.288 77.1203 26.224 77.163 26.16C77.227 26.0747 77.291 25.9573 77.355 25.808C77.611 25.296 77.7603 24.656 77.803 23.888C77.8457 23.12 77.7603 22.64 77.547 22.448ZM76.267 30.192C76.459 29.936 76.683 29.84 76.939 29.904C77.1097 29.9467 77.2057 30.128 77.227 30.448C77.2697 30.7467 77.2697 31.3973 77.227 32.4C77.2057 34.064 77.2377 34.96 77.323 35.088C77.387 35.216 78.2403 35.1733 79.883 34.96C79.9257 34.96 79.979 34.9493 80.043 34.928C81.707 34.672 82.6777 34.544 82.955 34.544C83.2323 34.544 83.3923 34.672 83.435 34.928C83.435 34.9493 83.435 34.96 83.435 34.96C83.4777 35.1307 83.467 35.2907 83.403 35.44C83.3603 35.5893 83.275 35.7173 83.147 35.824C83.019 35.9307 82.8483 36.016 82.635 36.08C82.4217 36.1227 82.1763 36.144 81.899 36.144C81.259 36.144 80.0323 36.2613 78.219 36.496C74.4003 37.072 72.2777 37.3173 71.851 37.232C71.5737 37.104 71.435 36.8587 71.435 36.496C71.435 36.24 71.5203 36.08 71.691 36.016C71.8617 35.9307 72.3417 35.8453 73.131 35.76C73.4083 35.7387 73.6963 35.7173 73.995 35.696C74.315 35.6533 74.603 35.6213 74.859 35.6C75.1363 35.5787 75.2963 35.568 75.339 35.568C75.5737 35.5467 75.7123 35.3973 75.755 35.12C75.819 34.8427 75.8723 34.1387 75.915 33.008C75.9363 31.3653 76.0537 30.4267 76.267 30.192Z" fill="white"/>
</svg>
